<svg id="Layer_1" data-name="Layer 1" xmlns="http://www.w3.org/2000/svg" viewBox="0 0 24.62 24.62"><defs><style>.cls-1{fill:#918e9b;}</style></defs><path class="cls-1" d="M22.23.16H2.88A2.6,2.6,0,0,0,1,.94,2.59,2.59,0,0,0,.25,2.8V22.14a2.63,2.63,0,0,0,2.63,2.64h7.55V16.41H7V12.47h3.47v-3c0-3.41,2-5.3,5.14-5.3a21.26,21.26,0,0,1,3.05.26V7.79H16.91a2,2,0,0,0-2.22,2.13v2.55h3.77l-.6,3.94H14.69v8.37h7.54a2.65,2.65,0,0,0,2.64-2.64V2.8A2.6,2.6,0,0,0,24.09.94,2.6,2.6,0,0,0,22.23.16Z" transform="translate(-0.25 -0.16)"/></svg>