<svg id="Layer_1" data-name="Layer 1" xmlns="http://www.w3.org/2000/svg" viewBox="0 0 24.64 24.64"><defs><style>.cls-1{fill:#918e9b;}</style></defs><path class="cls-1" d="M22.21.12H2.85A2.64,2.64,0,0,0,.21,2.76V22.12a2.64,2.64,0,0,0,2.64,2.64H22.21a2.64,2.64,0,0,0,2.64-2.64V2.76A2.65,2.65,0,0,0,22.21.12ZM15.46,21.23c-.46.08-.64-.21-.64-.44s0-1.82,0-3.05a2.11,2.11,0,0,0-.63-1.68c2-.23,4.18-.51,4.18-4a2.81,2.81,0,0,0-.94-2.15,3.39,3.39,0,0,0-.09-2.47c-.76-.24-2.51,1-2.51,1a8.61,8.61,0,0,0-4.58,0s-1.75-1.22-2.51-1a3.41,3.41,0,0,0-.1,2.47A2.77,2.77,0,0,0,6.81,12c0,3.49,2.05,3.79,4.08,4a2,2,0,0,0-.58,1.22,1.93,1.93,0,0,1-2.66-.76,1.91,1.91,0,0,0-1.4-.94c-.89,0-.06.56-.06.56.59.27,1,1.33,1,1.33.54,1.63,3.09,1.08,3.09,1.08,0,.77,0,2,0,2.24s-.17.52-.63.44A9.13,9.13,0,0,1,3.5,12.52a8.72,8.72,0,0,1,8.9-8.88,8.93,8.93,0,0,1,9.15,8.88A9.05,9.05,0,0,1,15.46,21.23Zm-5.4-3.36c-.1,0-.2,0-.21-.1s.06-.15.16-.17.21,0,.22.1S10.17,17.84,10.06,17.87Zm-.52-.05c0,.07-.08.13-.19.13s-.21-.05-.21-.13.09-.14.2-.14S9.54,17.73,9.54,17.82Zm-.75-.06a.19.19,0,0,1-.23.07c-.1,0-.18-.11-.15-.18s.13-.1.22-.08S8.81,17.68,8.79,17.76Zm-.68-.3c0,.06-.15.05-.24,0s-.1-.18,0-.23.16-.05.24,0S8.16,17.41,8.11,17.46Zm-.5-.5c-.05,0-.14,0-.2-.08s-.07-.18,0-.22.15,0,.2.07S7.67,16.91,7.61,17Zm-.36-.54s-.13,0-.19,0S7,16.24,7,16.2s.13,0,.19,0S7.3,16.39,7.25,16.42ZM6.88,16c0,.05-.09.06-.15,0s-.11-.09-.08-.14.08-.05.15,0S6.9,16,6.88,16Z" transform="translate(-0.21 -0.12)"/></svg>