<svg id="Layer_1" data-name="Layer 1" xmlns="http://www.w3.org/2000/svg" viewBox="0 0 24.66 24.66"><defs><style>.cls-1{fill:#918e9b;}</style></defs><path class="cls-1" d="M12.54,9.52A3,3,0,0,0,10.9,10a3,3,0,0,0-1.08,1.32A2.94,2.94,0,0,0,15,14.08a2.94,2.94,0,0,0-2.44-4.56ZM19.4,7.26a3.1,3.1,0,0,0-.66-1,3,3,0,0,0-1-.66c-1.16-.46-3.91-.36-5.19-.36s-4-.1-5.2.36a3,3,0,0,0-1,.66,3.1,3.1,0,0,0-.66,1c-.45,1.16-.35,3.91-.35,5.19s-.1,4,.35,5.2a3.07,3.07,0,0,0,.67,1,3,3,0,0,0,1,.66c1.15.46,3.9.35,5.19.35s4,.11,5.19-.35a3.1,3.1,0,0,0,1-.66,3,3,0,0,0,.66-1c.46-1.16.36-3.92.36-5.2s.1-4-.36-5.19ZM12.54,17a4.5,4.5,0,0,1-4.17-2.79,4.4,4.4,0,0,1-.26-2.61A4.48,4.48,0,0,1,11.66,8,4.49,4.49,0,0,1,16.29,10a4.54,4.54,0,0,1,.76,2.5,4.64,4.64,0,0,1-.34,1.73,4.56,4.56,0,0,1-1,1.47A4.62,4.62,0,0,1,12.54,17Zm4.7-8.17a1.1,1.1,0,0,1-.59-.17,1.08,1.08,0,0,1-.39-.48,1,1,0,0,1-.06-.6A1,1,0,0,1,16.49,7,1,1,0,0,1,17,6.72a1.06,1.06,0,0,1,.61.06,1.09,1.09,0,0,1,.47.38,1.05,1.05,0,0,1,.1,1A1,1,0,0,1,18,8.5a1.36,1.36,0,0,1-.34.23,1.1,1.1,0,0,1-.4.08Zm5-8.68H2.85A2.64,2.64,0,0,0,1,.9,2.6,2.6,0,0,0,.21,2.77V22.14A2.63,2.63,0,0,0,1,24a2.68,2.68,0,0,0,1.87.77H22.22a2.65,2.65,0,0,0,2.65-2.64V2.77A2.66,2.66,0,0,0,22.22.12Zm-.94,16a5.2,5.2,0,0,1-1.42,3.68,5.25,5.25,0,0,1-3.69,1.43c-1.45.08-5.81.08-7.27,0a5.23,5.23,0,0,1-3.68-1.43,5.24,5.24,0,0,1-1.43-3.68c-.08-1.46-.08-5.82,0-7.27A5.21,5.21,0,0,1,5.22,5.13,5.28,5.28,0,0,1,8.9,3.71c1.46-.08,5.82-.08,7.27,0a5.25,5.25,0,0,1,3.69,1.43,5.24,5.24,0,0,1,1.42,3.69C21.36,10.28,21.36,14.63,21.28,16.09Z" transform="translate(-0.21 -0.12)"/></svg>