<svg id="Layer_1" data-name="Layer 1" xmlns="http://www.w3.org/2000/svg" viewBox="0 0 24.72 24.72"><defs><style>.cls-1{fill:#918e9b;}</style></defs><path class="cls-1" d="M22.28.12H2.85A2.65,2.65,0,0,0,.21,2.77V22.19a2.64,2.64,0,0,0,2.64,2.65H22.28a2.65,2.65,0,0,0,2.65-2.65V2.77A2.65,2.65,0,0,0,22.28.12Zm-2.7,8.77c0,.15,0,.31,0,.46A10.3,10.3,0,0,1,3.74,18a8.31,8.31,0,0,0,.87,0A7.26,7.26,0,0,0,9.1,16.53,3.64,3.64,0,0,1,5.72,14,3.91,3.91,0,0,0,7.35,14a3.63,3.63,0,0,1-2.9-3.55v-.05a3.63,3.63,0,0,0,1.64.46A3.62,3.62,0,0,1,4.9,9.51,3.66,3.66,0,0,1,4.48,7.8,3.55,3.55,0,0,1,5,6a10.28,10.28,0,0,0,7.46,3.79A3.63,3.63,0,0,1,18.6,6.45a7.11,7.11,0,0,0,2.3-.87,3.58,3.58,0,0,1-1.59,2A7,7,0,0,0,21.39,7,7.88,7.88,0,0,1,19.58,8.89Z" transform="translate(-0.21 -0.12)"/></svg>